# xmcd
# 
# Track frame offsets:
#     150
#     13007
#     26435
#     39150
#     50502
#     63655
#     76010
#     86757
#     100285
#     111947
#     123625
#     134325
#     146537
#     159272
#     171042
#     182530
#     193840
#     207715
#     219770
#     231587
#     242922
#     255602
#     267852
#     282315
#     296070
# 
# Disc length: 4090
# 
# Revision: 0
# Processed by: cddbd v1.5.2PL0 Copyright (c) Steve Scherf et al.
# Submitted via: fre:ac v1.0.31
# 
DISCID=710ff819
DTITLE=Columbia Blues - Roy Milton and His Solid Senders
DYEAR=1990
DGENRE=Blues
TTITLE0=Milton's Boogie
TTITLE1=R. M. Blues
TTITLE2=True Blues
TTITLE3=Camille's Boogie
TTITLE4=Thrill Me
TTITLE5=Big Fat Mama
TTITLE6=Keep A Dollar In Your Pocket
TTITLE7=Everything I Do Is Wrong
TTITLE8=Hop, Skip and Jump
TTITLE9=Porter's Love Song
TTITLE10=The Hucklebuck
TTITLE11=Information Blues
TTITLE12=Where There Is No Love
TTITLE13=Junior Jives
TTITLE14=Bartender's Boogie
TTITLE15=Oh Babe
TTITLE16=Christmas Time Blues
TTITLE17=It's Later Than You Think
TTITLE18=The Numbers Blues
TTITLE19=I Have News For You
TTITLE20=T-Town Twist
TTITLE21=Best Wishes
TTITLE22=So Tired
TTITLE23=Night And Day (I Miss You So)
TTITLE24=Blue Turning Grey
EXTD=
EXTT0=
EXTT1=
EXTT2=
EXTT3=
EXTT4=
EXTT5=
EXTT6=
EXTT7=
EXTT8=
EXTT9=
EXTT10=
EXTT11=
EXTT12=
EXTT13=
EXTT14=
EXTT15=
EXTT16=
EXTT17=
EXTT18=
EXTT19=
EXTT20=
EXTT21=
EXTT22=
EXTT23=
EXTT24=
PLAYORDER=
